<svg width="293" height="338" viewBox="0 0 293 338" fill="none" xmlns="http://www.w3.org/2000/svg">
<path d="M89.6522 71.1715L57.6049 52.6178L147 0.330078L236.395 52.6178L204.348 71.1715L147 39.1242L89.6522 71.1715ZM260.009 103.219V142.013L292.056 123.459V84.6651L260.009 66.1114L227.962 84.6651L260.009 103.219ZM114.953 84.6651L147 103.219L179.047 84.6651L147 66.1114L114.953 84.6651ZM236.395 116.712L204.348 98.1587L147 130.206L89.6522 98.1587L57.6049 116.712V155.506L114.953 187.554V253.335L147 271.889L179.047 253.335V187.554L236.395 155.506V116.712ZM260.009 234.781L204.348 266.829V305.623L293.743 253.335V150.446L260.009 169V234.781ZM204.348 239.841L236.395 221.288V182.494L204.348 201.047V239.841ZM114.953 280.322V319.116L147 337.67L179.047 319.116V280.322L147 298.876L114.953 280.322ZM0.25708 123.459L32.3044 142.013V103.219L66.0384 84.6651L33.9911 66.1114L0.25708 84.6651V123.459ZM33.9911 169L1.94377 150.446V253.335L91.3389 305.623V266.829L33.9911 234.781V169ZM89.6522 201.047L57.6049 182.494V221.288L89.6522 239.841V201.047Z" fill="url(#paint0_linear_54_368)"/>
<defs>
<linearGradient id="paint0_linear_54_368" x1="147" y1="0.330078" x2="147" y2="337.67" gradientUnits="userSpaceOnUse">
<stop stop-color="#F9D230"/>
<stop offset="1" stop-color="#F0B90C"/>
</linearGradient>
</defs>
</svg>
