<svg width="58" height="59" viewBox="0 0 58 59" fill="none" xmlns="http://www.w3.org/2000/svg">
<path fill-rule="evenodd" clip-rule="evenodd" d="M12.1168 55.6626V46.4868C12.1168 46.147 12.3434 45.8071 12.7965 45.8071H19.7067C20.0465 45.8071 20.3864 46.147 20.3864 46.4868V55.6626H12.1168ZM45.8746 55.6626V25.6431H42.7028C42.4762 25.6431 42.2496 25.5298 42.1364 25.3032C42.0231 25.0767 42.0231 24.7368 42.1364 24.6235L49.2731 13.7485C49.3864 13.522 49.6129 13.4087 49.8395 13.4087C50.0661 13.4087 50.2926 13.522 50.4059 13.7485L57.8825 24.5103C57.9957 24.6235 57.9957 24.7368 57.9957 24.9634C57.9957 25.3032 57.6559 25.6431 57.3161 25.6431H54.1442V55.6626H45.8746ZM34.6598 55.6626V35.3853C34.6598 35.0454 34.8864 34.7056 35.3395 34.7056H42.2496C42.5895 34.7056 42.9293 35.0454 42.9293 35.3853V55.6626H34.6598ZM23.3317 55.6626V42.0688C23.3317 41.6157 23.6715 41.3892 24.0114 41.3892H30.9215C31.3746 41.3892 31.6012 41.6157 31.6012 42.0688V55.6626H23.3317ZM56.1832 58.3813H8.71838C8.37854 58.3813 8.03869 58.0415 8.03869 57.7017C8.03869 57.2485 8.37854 57.022 8.71838 57.022H56.1832C56.5231 57.022 56.8629 57.2485 56.8629 57.7017C56.8629 58.0415 56.5231 58.3813 56.1832 58.3813ZM8.03869 42.9751C6.56604 42.9751 5.43322 42.0688 5.20666 40.5962C5.09338 39.4634 5.65979 37.8774 7.58557 37.4243C8.83166 36.9712 10.0778 36.4048 11.0973 35.9517C11.4371 35.8384 11.777 35.7251 12.0035 35.4985C14.609 34.3657 17.1012 32.8931 19.3668 31.1938C26.3903 26.0962 31.4879 19.6392 34.5465 12.0493C35.1129 10.6899 35.566 9.21729 35.9059 7.85791L36.0192 7.51807L32.2809 5.93213C32.0543 5.81885 31.8278 5.479 31.8278 5.25244C31.8278 5.02588 32.0543 4.68604 32.2809 4.68604L41.3434 0.947754C41.6832 0.834473 42.0231 0.947754 42.1364 1.2876L45.8746 10.3501C45.9879 10.5767 45.8746 10.9165 45.7614 11.0298C45.5348 11.2563 45.195 11.3696 44.9684 11.2563L41.3434 9.67041C39.7575 14.9946 37.3785 19.8657 34.32 24.2837C31.1481 28.5884 27.1832 32.5532 22.652 35.8384C19.7067 37.9907 16.5348 39.8032 13.3629 41.1626C12.2301 41.729 10.6442 42.4087 9.28479 42.8618C8.83166 42.9751 8.49182 42.9751 8.03869 42.9751Z" fill="#3E8DE3"/>
<path fill-rule="evenodd" clip-rule="evenodd" d="M12.4565 27.0024C5.54639 27.0024 -0.00439453 21.4517 -0.00439453 14.5415C-0.00439453 7.74463 5.54639 2.08057 12.4565 2.08057C19.3667 2.08057 24.9175 7.74463 24.9175 14.5415C24.9175 21.4517 19.3667 27.0024 12.4565 27.0024ZM11.7769 21.9048C9.85107 21.5649 8.37842 19.979 8.37842 17.9399C8.37842 17.6001 8.71826 17.2603 9.05811 17.2603C9.51123 17.2603 9.73779 17.6001 9.73779 17.9399C9.73779 19.186 10.644 20.2056 11.7769 20.5454V15.2212C9.85107 14.8813 8.37842 13.1821 8.37842 11.2563C8.37842 9.21729 9.85107 7.63135 11.7769 7.2915V6.83838C11.7769 6.49854 12.1167 6.15869 12.4565 6.15869C12.7964 6.15869 13.1362 6.49854 13.1362 6.83838V7.2915C15.062 7.63135 16.4214 9.21729 16.4214 11.2563C16.4214 11.5962 16.1948 11.936 15.7417 11.936C15.4019 11.936 15.062 11.5962 15.062 11.2563C15.062 10.0103 14.269 8.99072 13.1362 8.65088V13.9751C15.062 14.3149 16.4214 15.9009 16.4214 17.9399C16.4214 19.979 15.062 21.5649 13.1362 21.9048V22.2446C13.1362 22.6978 12.7964 22.9243 12.4565 22.9243C12.1167 22.9243 11.7769 22.6978 11.7769 22.2446V21.9048ZM13.1362 20.5454C14.269 20.2056 15.062 19.186 15.062 17.9399C15.062 16.6938 14.269 15.6743 13.1362 15.3345V20.5454ZM11.7769 8.65088C10.644 8.99072 9.73779 10.0103 9.73779 11.2563C9.73779 12.5024 10.644 13.522 11.7769 13.8618V8.65088Z" fill="#3E8DE3"/>
</svg>
