<svg width="60" height="53" viewBox="0 0 60 53" fill="none" xmlns="http://www.w3.org/2000/svg">
<path d="M26.2456 15.3569V11.6069H3.74561C1.67936 11.6069 -0.00439453 13.2907 -0.00439453 15.3569V22.8569H27.0369C26.5156 20.5657 26.2456 18.0982 26.2456 15.3569ZM59.8419 30.3569C57.2844 34.2982 53.3844 37.6507 47.7969 40.8607C46.9381 41.3519 45.9706 41.6069 44.9956 41.6069C44.0206 41.6069 43.0531 41.3519 42.2056 40.8682C36.6181 37.6507 32.7181 34.2944 30.1569 30.3569H-0.00439453V49.1069C-0.00439453 51.1769 1.67936 52.8569 3.74561 52.8569H56.2456C58.3156 52.8569 59.9956 51.1769 59.9956 49.1069V30.3569H59.8419ZM16.8706 41.6069H9.37061C8.33561 41.6069 7.49561 40.7669 7.49561 39.7319C7.49561 38.6969 8.33561 37.8569 9.37061 37.8569H16.8706C17.9056 37.8569 18.7456 38.6969 18.7456 39.7319C18.7456 40.7669 17.9056 41.6069 16.8706 41.6069Z" fill="#3E8DE3"/>
<path d="M58.8594 6.13576L45.7344 0.510761C45.5003 0.410554 45.2483 0.358887 44.9937 0.358887C44.7391 0.358887 44.4872 0.410554 44.2531 0.510761L31.1281 6.13576C30.4419 6.42826 29.9956 7.10701 29.9956 7.85701V15.357C29.9956 25.6733 33.8094 31.7033 44.0619 37.6095C44.3506 37.7745 44.6731 37.857 44.9956 37.857C45.3181 37.857 45.6406 37.7745 45.9294 37.6095C56.1819 31.7183 59.9956 25.6883 59.9956 15.357V7.85701C59.9956 7.10701 59.5494 6.42826 58.8594 6.13576ZM52.0869 14.6558L44.5869 24.0308C44.2269 24.4733 43.6869 24.732 43.1206 24.732H43.0419C42.747 24.7191 42.4592 24.6371 42.2019 24.4925C41.9446 24.3478 41.7249 24.1447 41.5606 23.8995L37.8106 18.2745C37.2369 17.412 37.4694 16.2495 38.3319 15.6758C39.1869 15.1058 40.3531 15.3308 40.9306 16.197L43.2594 19.6883L49.1544 12.3158C49.8031 11.5095 50.9844 11.382 51.7906 12.0233C52.6006 12.6645 52.7281 13.8458 52.0869 14.6558Z" fill="#3E8DE3"/>
</svg>
