<svg width="58" height="59" viewBox="0 0 58 59" fill="none" xmlns="http://www.w3.org/2000/svg">
<path d="M55.0956 3.50791H46.3956V0.60791H11.5956V3.50791H2.89561C1.15561 3.50791 -0.00439453 4.66791 -0.00439453 6.40791V13.3679C-0.00439453 20.0379 4.92561 25.5479 11.5956 26.4179V26.7079C11.5956 35.1179 17.3956 42.0779 25.2256 43.8179L23.1956 49.9079H16.5256C15.3656 49.9079 14.2056 50.7779 13.9156 51.9379L11.5956 58.6079H46.3956L44.0756 51.9379C43.7856 50.7779 42.6256 49.9079 41.4656 49.9079H34.7956L32.7656 43.8179C40.5956 42.0779 46.3956 35.1179 46.3956 26.7079V26.4179C53.0656 25.5479 57.9956 20.0379 57.9956 13.3679V6.40791C57.9956 4.66791 56.8356 3.50791 55.0956 3.50791ZM11.5956 20.6179C8.40561 19.7479 5.79561 16.8479 5.79561 13.3679V9.30791H11.5956V20.6179ZM34.7956 29.6079L28.9956 26.4179L23.1956 29.6079L24.6456 23.8079L20.2956 18.0079H26.3856L28.9956 12.2079L31.6056 18.0079H37.6956L33.3456 23.8079L34.7956 29.6079ZM52.1956 13.3679C52.1956 16.8479 49.5856 20.0379 46.3956 20.6179V9.30791H52.1956V13.3679Z" fill="#3E8DE3"/>
</svg>
