<svg width="54" height="55" viewBox="0 0 54 55" fill="none" xmlns="http://www.w3.org/2000/svg">
<path fill-rule="evenodd" clip-rule="evenodd" d="M51.4754 13.6105C51.4421 14.0922 51.2244 14.5426 50.8677 14.868C50.511 15.1934 50.0425 15.3689 49.5598 15.358C49.077 15.347 48.6171 15.1505 48.2754 14.8092C47.9338 14.468 47.7368 14.0082 47.7254 13.5255L47.8279 9.01046L43.3154 8.90796C42.8336 8.87465 42.3833 8.65702 42.0578 8.30028C41.7324 7.94355 41.5569 7.47514 41.5679 6.99239C41.5788 6.50963 41.7753 6.04966 42.1166 5.70803C42.4579 5.36641 42.9176 5.16941 43.4004 5.15796L49.7904 5.30546C50.0364 5.31065 50.279 5.36435 50.5042 5.46347C50.7294 5.56259 50.9329 5.70519 51.1029 5.8831C51.2729 6.061 51.4061 6.27071 51.4949 6.5002C51.5837 6.7297 51.6263 6.97446 51.6204 7.22046L51.4754 13.6105ZM11.5629 20.973V51.3255C11.5629 53.0705 10.1504 54.483 8.40536 54.483H3.27786C2.86312 54.4833 2.45238 54.4018 2.06915 54.2433C1.68592 54.0847 1.33771 53.8522 1.04444 53.5589C0.751173 53.2656 0.518606 52.9174 0.360043 52.5342C0.20148 52.1509 0.120034 51.7402 0.120362 51.3255V20.973C0.120362 19.2305 1.53286 17.8155 3.27786 17.8155H8.40536C10.1504 17.8155 11.5629 19.2305 11.5629 20.973ZM39.7679 36.358V51.3255C39.7682 51.7402 39.6868 52.1509 39.5282 52.5342C39.3696 52.9174 39.1371 53.2656 38.8438 53.5589C38.5505 53.8522 38.2023 54.0847 37.8191 54.2433C37.4358 54.4018 37.0251 54.4833 36.6104 54.483H31.4829C31.0681 54.4833 30.6574 54.4018 30.2742 54.2433C29.8909 54.0847 29.5427 53.8522 29.2494 53.5589C28.9562 53.2656 28.7236 52.9174 28.565 52.5342C28.4065 52.1509 28.325 51.7402 28.3254 51.3255V36.358C28.325 35.9432 28.4065 35.5325 28.565 35.1493C28.7236 34.766 28.9562 34.4178 29.2494 34.1245C29.5427 33.8313 29.8909 33.5987 30.2742 33.4401C30.6574 33.2816 31.0681 33.2001 31.4829 33.2005H36.6104C37.0251 33.2001 37.4358 33.2816 37.8191 33.4401C38.2023 33.5987 38.5505 33.8313 38.8438 34.1245C39.1371 34.4178 39.3696 34.766 39.5282 35.1493C39.6868 35.5325 39.7682 35.9432 39.7679 36.358ZM25.6654 28.6655V51.3255C25.6654 53.0705 24.2529 54.483 22.5079 54.483H17.3804C16.9656 54.4833 16.5549 54.4018 16.1717 54.2433C15.7884 54.0847 15.4402 53.8522 15.1469 53.5589C14.8537 53.2656 14.6211 52.9174 14.4625 52.5342C14.304 52.1509 14.2225 51.7402 14.2229 51.3255V28.6655C14.2225 28.2507 14.304 27.84 14.4625 27.4568C14.6211 27.0735 14.8537 26.7253 15.1469 26.432C15.4402 26.1388 15.7884 25.9062 16.1717 25.7476C16.5549 25.5891 16.9656 25.5076 17.3804 25.508H22.5079C24.2529 25.508 25.6654 26.923 25.6654 28.6655ZM53.8704 28.6655V51.3255C53.8704 53.0705 52.4579 54.483 50.7129 54.483H45.5854C45.1706 54.4833 44.7599 54.4018 44.3767 54.2433C43.9934 54.0847 43.6452 53.8522 43.3519 53.5589C43.0587 53.2656 42.8261 52.9174 42.6676 52.5342C42.509 52.1509 42.4275 51.7402 42.4279 51.3255V28.6655C42.4275 28.2507 42.509 27.84 42.6676 27.4568C42.8261 27.0735 43.0587 26.7253 43.3519 26.432C43.6452 26.1388 43.9934 25.9062 44.3767 25.7476C44.7599 25.5891 45.1706 25.5076 45.5854 25.508H50.7129C52.4579 25.508 53.8704 26.923 53.8704 28.6655Z" fill="#3E8DE3"/>
<path fill-rule="evenodd" clip-rule="evenodd" d="M3.12037 4.10792C2.72254 3.80955 2.45954 3.36537 2.38921 2.87308C2.31889 2.3808 2.447 1.88074 2.74537 1.48292C3.04374 1.08509 3.48792 0.822089 3.9802 0.751763C4.47249 0.681436 4.97254 0.809549 5.37037 1.10792L20.2529 12.2704H27.3204C27.6045 12.2704 27.885 12.335 28.1405 12.4593C28.396 12.5836 28.62 12.7644 28.7954 12.9879L34.5129 20.2654L47.7629 6.43792C47.9333 6.26014 48.137 6.11767 48.3624 6.01863C48.5879 5.91959 48.8307 5.86592 49.0768 5.8607C49.323 5.85548 49.5678 5.8988 49.7973 5.98818C50.0267 6.07757 50.2363 6.21128 50.4141 6.38167C50.5919 6.55206 50.7344 6.7558 50.8334 6.98125C50.9324 7.2067 50.9861 7.44945 50.9913 7.69564C50.9966 7.94183 50.9532 8.18664 50.8639 8.41609C50.7745 8.64554 50.6408 8.85514 50.4704 9.03292L35.7254 24.4179C35.5402 24.6127 35.3152 24.7652 35.0656 24.8651C34.8161 24.9649 34.5479 25.0097 34.2795 24.9964C34.0111 24.9831 33.7487 24.9121 33.5102 24.7881C33.2718 24.6641 33.0629 24.4901 32.8979 24.2779L26.4104 16.0204H19.6279C19.2221 16.021 18.8272 15.8893 18.5029 15.6454L3.12037 4.10792Z" fill="#3E8DE3"/>
</svg>
