<svg width="62" height="67" viewBox="0 0 62 67" fill="none" xmlns="http://www.w3.org/2000/svg">
<path fill-rule="evenodd" clip-rule="evenodd" d="M9.21776 51.2197L9.22847 51.2388L15.1039 61.7322L15.1134 61.7491L16.4047 64.0552C16.5133 64.2508 16.4467 64.5009 16.2541 64.6108L16.2526 64.6116L13.4201 66.2343C13.374 66.2604 13.3233 66.2772 13.2707 66.2837C13.2181 66.2902 13.1648 66.2863 13.1138 66.2721C13.0627 66.258 13.015 66.2339 12.9733 66.2012C12.9315 66.1686 12.8967 66.1281 12.8707 66.0819L12.8701 66.0811L4.53243 51.1904L4.53216 51.1898C4.42304 50.9953 4.48947 50.7464 4.68108 50.6372L4.68204 50.6366L7.51965 49.0129C7.71263 48.9028 7.95941 48.974 8.06949 49.169L9.21776 51.2197ZM7.07659 50.6941C6.43314 50.787 5.98884 51.391 6.0808 52.0414C6.17647 52.6917 6.77408 53.1447 7.41753 53.0479C8.06098 52.955 8.50527 52.3472 8.41345 51.6968C8.31765 51.0465 7.72018 50.5974 7.07659 50.6941ZM16.46 59.6952L11.644 51.0941L19.015 46.7807C20.7138 45.7877 22.4207 44.9974 24.2867 45.6098L24.2871 45.6099C26.7206 46.4075 30.6879 48.1066 34.7416 48.8597C35.6483 49.1876 36.2357 50.1017 35.9843 51.0466L35.9841 51.0471C35.7354 51.9832 34.9408 52.4299 33.8604 52.3102C31.6368 51.8456 29.5721 51.1631 27.2817 50.5411C26.7027 50.3838 26.1062 50.7312 25.9506 51.3164C25.795 51.9017 26.1387 52.5045 26.7178 52.6618C29.0673 53.3001 33.4986 54.4767 33.5133 54.4792L34.7678 54.6855L34.7715 54.6862C36.6425 54.9872 38.3592 54.7198 39.9973 53.7551L50.1064 47.8041C52.4223 46.4405 54.016 46.151 55.0551 46.588C55.8391 46.9177 56.1475 47.7124 56.1278 48.4618C56.1112 49.0944 55.8789 49.732 55.3881 50.0375L37.0433 61.4533L37.0424 61.454C35.6198 62.3413 34.0608 62.5414 32.4467 62.1063L19.1409 58.502C19.003 58.4647 18.8592 58.4552 18.7176 58.474C18.576 58.4929 18.4397 58.5397 18.3164 58.6118L16.46 59.6952ZM18.8439 11.8392V16.555C18.8439 17.5705 18.0194 18.395 17.0038 18.395C15.9883 18.395 15.1639 17.5705 15.1639 16.555V11.8392C14.3526 12.3424 13.2768 12.1407 12.7068 11.3562C12.1099 10.5346 12.2923 9.38287 13.1139 8.78594L15.9224 6.74551C16.2367 6.5171 16.6153 6.39407 17.0039 6.39407C17.3925 6.39407 17.7711 6.5171 18.0854 6.74551L20.8939 8.78594C21.7154 9.38287 21.8978 10.5346 21.301 11.3562C20.731 12.1407 19.655 12.3424 18.8439 11.8392ZM6.8401 21.4892V26.205C6.8401 27.2205 6.01561 28.045 5.0002 28.045C3.98465 28.045 3.16016 27.2205 3.16016 26.205V21.4892C2.34884 21.9923 1.27304 21.7907 0.703019 21.0062C0.106097 20.1846 0.288509 19.0329 1.11012 18.4361L3.91863 16.3955C4.23297 16.1671 4.61156 16.044 5.00013 16.044C5.3887 16.044 5.76729 16.1671 6.08163 16.3955L8.89014 18.4361C9.71175 19.0329 9.89416 20.1846 9.29724 21.0062C8.72722 21.7907 7.65141 21.9923 6.8401 21.4892ZM16.1366 33.49V38.206C16.1366 39.2215 15.3123 40.0459 14.2967 40.0459C13.2812 40.0459 12.4567 39.2215 12.4567 38.206V33.49C11.6455 33.9932 10.5696 33.7916 9.99971 33.007C9.40278 32.1854 9.5852 31.0339 10.4067 30.4369L13.2152 28.3964C13.5295 28.168 13.9081 28.045 14.2967 28.045C14.6852 28.045 15.0638 28.168 15.3782 28.3964L18.1867 30.4369C19.0083 31.0339 19.1907 32.1854 18.5938 33.007C18.0238 33.7916 16.948 33.9932 16.1366 33.49ZM40.127 23.9787L53.1657 37.0175C49.8287 40.3544 45.2189 42.4183 40.127 42.4183C29.9431 42.4183 21.6874 34.1626 21.6874 23.9787C21.6874 13.7949 29.9431 5.53932 40.127 5.53932V23.9787ZM61.6399 22.4421C61.6399 27.534 59.5759 32.1438 56.239 35.4808L43.2003 22.4421H61.6399ZM43.2003 0.929199C53.3842 0.929199 61.6399 9.18481 61.6399 19.3687H43.2003V0.929199Z" fill="#3E8DE3"/>
</svg>
