<svg width="68" height="61" viewBox="0 0 68 61" fill="none" xmlns="http://www.w3.org/2000/svg">
<path d="M58.842 46.9541C57.8875 46.9542 56.9472 46.7221 56.1024 46.2777C55.2576 45.8333 54.5336 45.19 53.9929 44.4033L51.1133 40.2146C47.7211 46.2968 41.2727 50.2234 33.996 50.2234C23.8422 50.2234 15.4655 42.4677 14.4779 32.5696H16.3422C16.6996 32.5696 17.0503 32.472 17.3563 32.2872C17.6623 32.1025 17.912 31.8376 18.0784 31.5213C18.2448 31.2049 18.3215 30.8491 18.3004 30.4923C18.2793 30.1355 18.1611 29.7912 17.9585 29.4967L15.099 25.3375L10.7662 19.035C10.5859 18.7728 10.3446 18.5583 10.063 18.4102C9.78143 18.262 9.46801 18.1846 9.14981 18.1846C8.83161 18.1846 8.51818 18.262 8.23657 18.4101C7.95496 18.5582 7.71363 18.7727 7.53338 19.0349L0.34105 29.4965C0.138541 29.7911 0.0203575 30.1354 -0.000732351 30.4922C-0.0218222 30.849 0.0549829 31.2048 0.221386 31.5211C0.387789 31.8375 0.637465 32.1024 0.943443 32.2871C1.24942 32.4719 1.60007 32.5696 1.95751 32.5696H3.98157C4.44828 39.8651 7.51266 46.6598 12.7285 51.8757C18.4093 57.5565 25.9622 60.685 33.996 60.685C42.0298 60.685 49.5827 57.5565 55.2635 51.8757C56.7648 50.3744 58.1041 48.7194 59.2592 46.938C59.1204 46.9482 58.9812 46.9536 58.842 46.9541Z" fill="#3E8DE3"/>
<path d="M35.4906 28.6462H32.5016C31.9351 28.6462 31.4742 28.1853 31.4742 27.6188V26.1242C31.4742 25.5578 31.9351 25.0969 32.5016 25.0969H35.4906C36.0572 25.0969 36.518 25.5578 36.518 26.1242C36.518 27.2076 37.3963 28.0857 38.4795 28.0857C39.5627 28.0857 40.441 27.2074 40.441 26.1242C40.441 23.5522 38.469 21.4326 35.9574 21.1965V20.1463C35.9574 19.063 35.0791 18.1848 33.9959 18.1848C32.9126 18.1848 32.0344 19.0631 32.0344 20.1463V21.1965C29.5229 21.4326 27.5508 23.5522 27.5508 26.1242V27.6188C27.5508 30.3486 29.7715 32.5693 32.5014 32.5693H35.4903C36.0569 32.5693 36.5178 33.0302 36.5178 33.5968V35.0913C36.5178 35.6578 36.0568 36.1188 35.4903 36.1188H32.5014C31.9348 36.1188 31.4739 35.6579 31.4739 35.0914C31.4739 34.0081 30.5956 33.1299 29.5124 33.1299C28.4292 33.1299 27.5509 34.0082 27.5509 35.0914C27.5509 37.6635 29.5229 39.7831 32.0345 40.0192V41.0692C32.0345 42.1526 32.9128 43.0307 33.996 43.0307C35.0794 43.0307 35.9575 42.1524 35.9575 41.0692V40.0191C38.4689 39.7829 40.4412 37.6634 40.4412 35.0913V33.5968C40.441 30.8669 38.2204 28.6462 35.4906 28.6462Z" fill="#3E8DE3"/>
<path d="M67.7705 29.6948C67.604 29.3784 67.3544 29.1136 67.0484 28.9288C66.7424 28.744 66.3918 28.6464 66.0343 28.6463H64.0103C63.5436 21.3508 60.4792 14.5561 55.2634 9.34019C49.5827 3.65954 42.0297 0.531006 33.996 0.531006C25.9623 0.531006 18.4091 3.65954 12.7285 9.34033C11.2271 10.8416 9.88789 12.4966 8.73279 14.278C8.87156 14.2677 9.01066 14.2623 9.14982 14.2618C10.1044 14.2617 11.0447 14.4938 11.8895 14.9382C12.7343 15.3826 13.4583 16.0259 13.9989 16.8126L16.8786 21.0013C20.2707 14.9191 26.7192 10.9926 33.9959 10.9926C44.1496 10.9926 52.5264 18.7484 53.514 28.6465H51.6497C51.2922 28.6464 50.9416 28.7441 50.6356 28.9288C50.3296 29.1136 50.0799 29.3784 49.9135 29.6948C49.7471 30.0111 49.6703 30.3669 49.6914 30.7238C49.7126 31.0806 49.8308 31.4249 50.0334 31.7194L52.8928 35.8785L57.2257 42.181C57.406 42.4432 57.6473 42.6576 57.9289 42.8058C58.2105 42.9539 58.524 43.0313 58.8421 43.0313C59.1603 43.0313 59.4738 42.9539 59.7554 42.8058C60.037 42.6576 60.2783 42.4432 60.4586 42.181L63.0556 38.4034L67.6508 31.7195C67.8533 31.4249 67.9715 31.0806 67.9926 30.7238C68.0136 30.367 67.9369 30.0111 67.7705 29.6948Z" fill="#3E8DE3"/>
</svg>
