<svg width="132" height="141" viewBox="0 0 132 141" fill="none" xmlns="http://www.w3.org/2000/svg">
<g filter="url(#filter0_ii_1_2343)">
<path fill-rule="evenodd" clip-rule="evenodd" d="M65.8101 40.481L121.893 26.106C128.756 24.3467 132.894 17.3563 131.135 10.4925C129.376 3.62876 122.385 -0.50924 115.522 1.25007L52.4222 17.4236C51.9495 17.5358 51.4847 17.6747 51.0301 17.8388C49.2058 18.4933 47.608 19.5309 46.3055 20.8353C45.0686 22.0692 44.0707 23.5695 43.4114 25.2788C43.2183 25.7762 43.0559 26.2866 42.9256 26.8072L29.2737 77.3192C27.425 84.1595 31.4714 91.2033 38.3117 93.052C45.1519 94.9007 52.1957 90.8543 54.0444 84.014L65.8101 40.481Z" fill="url(#paint0_radial_1_2343)"/>
<path fill-rule="evenodd" clip-rule="evenodd" d="M65.8101 40.481L121.893 26.106C128.756 24.3467 132.894 17.3563 131.135 10.4925C129.376 3.62876 122.385 -0.50924 115.522 1.25007L52.4222 17.4236C51.9495 17.5358 51.4847 17.6747 51.0301 17.8388C49.2058 18.4933 47.608 19.5309 46.3055 20.8353C45.0686 22.0692 44.0707 23.5695 43.4114 25.2788C43.2183 25.7762 43.0559 26.2866 42.9256 26.8072L29.2737 77.3192C27.425 84.1595 31.4714 91.2033 38.3117 93.052C45.1519 94.9007 52.1957 90.8543 54.0444 84.014L65.8101 40.481Z" fill="#3E8DE3" fill-opacity="0.2"/>
</g>
<g filter="url(#filter1_ii_1_2343)">
<path fill-rule="evenodd" clip-rule="evenodd" d="M88.8782 114.323L102.53 63.8131C104.378 56.9729 100.332 49.9291 93.4917 48.0804C86.6514 46.2317 79.6076 50.2781 77.7589 57.1184L65.9932 100.651L9.91072 115.026C3.04694 116.786 -1.09106 123.776 0.668245 130.64C2.42756 137.504 9.41796 141.642 16.2817 139.882L79.3801 123.709C79.856 123.596 80.3238 123.456 80.7813 123.291C82.604 122.635 84.2005 121.597 85.5017 120.293C86.7333 119.063 87.7278 117.569 88.3865 115.868C88.5822 115.365 88.7466 114.849 88.8782 114.323Z" fill="url(#paint1_radial_1_2343)"/>
<path fill-rule="evenodd" clip-rule="evenodd" d="M88.8782 114.323L102.53 63.8131C104.378 56.9729 100.332 49.9291 93.4917 48.0804C86.6514 46.2317 79.6076 50.2781 77.7589 57.1184L65.9932 100.651L9.91072 115.026C3.04694 116.786 -1.09106 123.776 0.668245 130.64C2.42756 137.504 9.41796 141.642 16.2817 139.882L79.3801 123.709C79.856 123.596 80.3238 123.456 80.7813 123.291C82.604 122.635 84.2005 121.597 85.5017 120.293C86.7333 119.063 87.7278 117.569 88.3865 115.868C88.5822 115.365 88.7466 114.849 88.8782 114.323Z" fill="#3E8DE3" fill-opacity="0.2"/>
</g>
<defs>
<filter id="filter0_ii_1_2343" x="24.178" y="0.845215" width="114.036" height="100.789" filterUnits="userSpaceOnUse" color-interpolation-filters="sRGB">
<feFlood flood-opacity="0" result="BackgroundImageFix"/>
<feBlend mode="normal" in="SourceGraphic" in2="BackgroundImageFix" result="shape"/>
<feColorMatrix in="SourceAlpha" type="matrix" values="0 0 0 0 0 0 0 0 0 0 0 0 0 0 0 0 0 0 127 0" result="hardAlpha"/>
<feOffset dx="-4.64813" dy="8.13422"/>
<feGaussianBlur stdDeviation="9.87727"/>
<feComposite in2="hardAlpha" operator="arithmetic" k2="-1" k3="1"/>
<feColorMatrix type="matrix" values="0 0 0 0 1 0 0 0 0 1 0 0 0 0 1 0 0 0 0.87 0"/>
<feBlend mode="lighten" in2="shape" result="effect1_innerShadow_1_2343"/>
<feColorMatrix in="SourceAlpha" type="matrix" values="0 0 0 0 0 0 0 0 0 0 0 0 0 0 0 0 0 0 127 0" result="hardAlpha"/>
<feOffset dx="6.67384" dy="3.89307"/>
<feGaussianBlur stdDeviation="3.89307"/>
<feComposite in2="hardAlpha" operator="arithmetic" k2="-1" k3="1"/>
<feColorMatrix type="matrix" values="0 0 0 0 0.168627 0 0 0 0 0.180392 0 0 0 0 0.239216 0 0 0 0.9 0"/>
<feBlend mode="multiply" in2="effect1_innerShadow_1_2343" result="effect2_innerShadow_1_2343"/>
</filter>
<filter id="filter1_ii_1_2343" x="-4.3847" y="47.6328" width="114.036" height="100.789" filterUnits="userSpaceOnUse" color-interpolation-filters="sRGB">
<feFlood flood-opacity="0" result="BackgroundImageFix"/>
<feBlend mode="normal" in="SourceGraphic" in2="BackgroundImageFix" result="shape"/>
<feColorMatrix in="SourceAlpha" type="matrix" values="0 0 0 0 0 0 0 0 0 0 0 0 0 0 0 0 0 0 127 0" result="hardAlpha"/>
<feOffset dx="-4.64813" dy="8.13422"/>
<feGaussianBlur stdDeviation="9.87727"/>
<feComposite in2="hardAlpha" operator="arithmetic" k2="-1" k3="1"/>
<feColorMatrix type="matrix" values="0 0 0 0 1 0 0 0 0 1 0 0 0 0 1 0 0 0 0.87 0"/>
<feBlend mode="lighten" in2="shape" result="effect1_innerShadow_1_2343"/>
<feColorMatrix in="SourceAlpha" type="matrix" values="0 0 0 0 0 0 0 0 0 0 0 0 0 0 0 0 0 0 127 0" result="hardAlpha"/>
<feOffset dx="6.67384" dy="3.89307"/>
<feGaussianBlur stdDeviation="3.89307"/>
<feComposite in2="hardAlpha" operator="arithmetic" k2="-1" k3="1"/>
<feColorMatrix type="matrix" values="0 0 0 0 0.168627 0 0 0 0 0.180392 0 0 0 0 0.239216 0 0 0 0.9 0"/>
<feBlend mode="multiply" in2="effect1_innerShadow_1_2343" result="effect2_innerShadow_1_2343"/>
</filter>
<radialGradient id="paint0_radial_1_2343" cx="0" cy="0" r="1" gradientUnits="userSpaceOnUse" gradientTransform="translate(28.4398 32.7159) rotate(46.8985) scale(18.4788 32.7459)">
<stop stop-color="#3E8DE3"/>
<stop offset="0.635171" stop-color="#3E8DE3"/>
<stop offset="1" stop-color="#3E8DE3"/>
</radialGradient>
<radialGradient id="paint1_radial_1_2343" cx="0" cy="0" r="1" gradientUnits="userSpaceOnUse" gradientTransform="translate(103.363 108.417) rotate(-133.102) scale(18.4788 32.7459)">
<stop stop-color="#3E8DE3"/>
<stop offset="0.635171" stop-color="#3E8DE3"/>
<stop offset="1" stop-color="#3E8DE3"/>
</radialGradient>
</defs>
</svg>
