<svg width="174" height="175" viewBox="0 0 174 175" fill="none" xmlns="http://www.w3.org/2000/svg">
<g opacity="0.4">
<path d="M6.96592 107.522C6.51396 105.683 8.6928 104.525 10.0288 105.864L68.7286 164.707C70.0646 166.047 68.91 168.231 67.0754 167.778C37.5192 160.472 14.2536 137.15 6.96592 107.522Z" stroke="url(#paint0_linear_1_2219)" stroke-width="8.75023"/>
<path d="M4.74766 82.3777C4.73099 82.65 4.77242 82.9226 4.86917 83.1775C4.96592 83.4324 5.11578 83.6638 5.30874 83.856L90.6842 169.44C90.876 169.633 91.1068 169.783 91.3611 169.88C91.6154 169.977 91.8874 170.019 92.1589 170.002C95.7846 169.77 99.3911 169.298 102.955 168.589C104.439 168.294 104.955 166.469 103.884 165.396L9.34248 70.6237C8.27222 69.5509 6.45175 70.0676 6.1569 71.5556C5.44966 75.1279 4.97888 78.7432 4.74766 82.3777Z" stroke="url(#paint1_linear_1_2219)" stroke-width="8.75023"/>
<path d="M11.7383 54.016C11.5811 54.371 11.5353 54.7656 11.607 55.1474C11.6787 55.5292 11.8646 55.88 12.1398 56.1535L118.32 162.593C118.593 162.868 118.943 163.055 119.324 163.126C119.704 163.198 120.098 163.152 120.452 162.995C123.2 161.76 125.877 160.374 128.473 158.844C129.546 158.211 129.711 156.736 128.83 155.853L18.8626 45.6172C17.9819 44.7344 16.5106 44.8997 15.8792 45.976C14.3527 48.5777 12.9703 51.2618 11.7383 54.016Z" stroke="url(#paint2_linear_1_2219)" stroke-width="8.75023"/>
<path d="M25.736 35.2303C25.0182 34.5108 24.9736 33.3563 25.6521 32.5994C40.7101 15.8135 62.5432 5.25732 86.8356 5.25732C132.265 5.25732 169.093 42.175 169.093 87.7151C169.093 112.067 158.563 133.953 141.818 149.047C141.063 149.728 139.911 149.683 139.193 148.963L25.736 35.2303Z" stroke="url(#paint3_linear_1_2219)" stroke-width="8.75023"/>
</g>
<defs>
<linearGradient id="paint0_linear_1_2219" x1="86.894" y1="5.25672" x2="86.894" y2="117.551" gradientUnits="userSpaceOnUse">
<stop stop-color="#0052B4"/>
<stop offset="1" stop-color="#0052B4" stop-opacity="0"/>
</linearGradient>
<linearGradient id="paint1_linear_1_2219" x1="86.8949" y1="5.25662" x2="86.8949" y2="117.551" gradientUnits="userSpaceOnUse">
<stop stop-color="#0052B4"/>
<stop offset="1" stop-color="#0052B4" stop-opacity="0"/>
</linearGradient>
<linearGradient id="paint2_linear_1_2219" x1="86.8941" y1="5.25774" x2="86.8941" y2="117.552" gradientUnits="userSpaceOnUse">
<stop stop-color="#0052B4"/>
<stop offset="1" stop-color="#0052B4" stop-opacity="0"/>
</linearGradient>
<linearGradient id="paint3_linear_1_2219" x1="86.8952" y1="5.25732" x2="86.8952" y2="117.552" gradientUnits="userSpaceOnUse">
<stop stop-color="#0052B4"/>
<stop offset="1" stop-color="#0052B4" stop-opacity="0"/>
</linearGradient>
</defs>
</svg>
