<svg width="213" height="260" viewBox="0 0 213 260" fill="none" xmlns="http://www.w3.org/2000/svg">
<path d="M143.081 25.1189C143.212 24.6306 143.537 24.2159 143.985 23.9659C144.433 23.7159 144.967 23.6511 145.47 23.7856L152.105 25.5636C152.361 25.6246 152.602 25.7347 152.814 25.8874C153.026 26.0402 153.206 26.2324 153.341 26.4528C153.477 26.6731 153.567 26.9172 153.604 27.1705C153.642 27.4237 153.628 27.6811 153.562 27.9273C153.496 28.1736 153.38 28.4037 153.22 28.6041C153.061 28.8045 152.861 28.9711 152.634 29.0941C152.406 29.217 152.154 29.2938 151.894 29.32C151.634 29.3461 151.37 29.321 151.119 29.2461L144.483 27.4681C143.98 27.3334 143.55 27.0102 143.287 26.5696C143.024 26.129 142.95 25.6072 143.081 25.1189Z" fill="#3E8DE3"/>
<path d="M132.575 30.1977C132.706 29.7095 133.031 29.2948 133.479 29.0448C133.927 28.7948 134.461 28.7299 134.964 28.8644L157.715 34.9607C158.205 35.1064 158.621 35.4319 158.873 35.868C159.125 36.3041 159.194 36.8163 159.066 37.2959C158.937 37.7755 158.621 38.1845 158.185 38.4361C157.748 38.6877 157.226 38.762 156.729 38.6432L133.977 32.547C133.474 32.4123 133.044 32.0891 132.781 31.6485C132.518 31.2079 132.444 30.6861 132.575 30.1977Z" fill="#3E8DE3"/>
<path d="M124.915 36.0381C125.046 35.5498 125.371 35.1351 125.819 34.8851C126.267 34.6351 126.801 34.5703 127.304 34.7048L155.743 42.325C156.233 42.4708 156.648 42.7962 156.9 43.2323C157.152 43.6684 157.222 44.1807 157.093 44.6602C156.965 45.1398 156.649 45.5489 156.212 45.8005C155.776 46.0521 155.254 46.1264 154.756 46.0076L126.317 38.3873C125.814 38.2526 125.384 37.9294 125.121 37.4888C124.858 37.0482 124.784 36.5264 124.915 36.0381Z" fill="#3E8DE3"/>
<path d="M117.251 41.8803C117.382 41.3921 117.708 40.9774 118.156 40.7274C118.604 40.4774 119.138 40.4125 119.641 40.5471L153.767 49.6913C154.257 49.8371 154.673 50.1625 154.925 50.5986C155.177 51.0347 155.246 51.547 155.117 52.0265C154.989 52.5061 154.673 52.9152 154.237 53.1668C153.8 53.4184 153.278 53.4927 152.781 53.3739L118.654 44.2296C118.151 44.0949 117.721 43.7717 117.458 43.3311C117.195 42.8905 117.12 42.3687 117.251 41.8803Z" fill="#3E8DE3"/>
<path d="M109.593 47.7219C109.865 46.7046 110.935 46.1072 111.982 46.3879L151.797 57.0561C152.291 57.1987 152.71 57.5236 152.965 57.9611C153.221 58.3986 153.291 58.9137 153.162 59.3959C153.033 59.8781 152.714 60.2889 152.274 60.5401C151.835 60.7913 151.309 60.8629 150.81 60.7394L110.995 50.0712C110.492 49.9364 110.062 49.6132 109.799 49.1726C109.536 48.7321 109.462 48.2102 109.593 47.7219Z" fill="#3E8DE3"/>
<path d="M101.931 53.562C102.204 52.5447 103.273 51.948 104.32 52.2287L149.823 64.421C150.325 64.5557 150.756 64.8789 151.019 65.3195C151.282 65.7601 151.356 66.2819 151.225 66.7703C151.094 67.2586 150.769 67.6734 150.321 67.9234C149.873 68.1735 149.339 68.2383 148.836 68.1035L103.334 55.9113C102.831 55.7765 102.401 55.4533 102.138 55.0127C101.875 54.5722 101.8 54.0503 101.931 53.562Z" fill="#3E8DE3"/>
<path d="M93.3208 59.1504C93.5934 58.1331 94.6626 57.5364 95.7101 57.8171L147.848 71.7874C148.351 71.9221 148.781 72.2453 149.044 72.6859C149.307 73.1265 149.381 73.6483 149.25 74.1366C149.12 74.625 148.794 75.0398 148.346 75.2898C147.898 75.5399 147.364 75.6046 146.861 75.4699L94.7233 61.4996C94.2205 61.3649 93.7903 61.0417 93.5272 60.6011C93.2642 60.1605 93.19 59.6387 93.3208 59.1504Z" fill="#3E8DE3"/>
<path d="M85.6608 64.9912C85.9334 63.9739 87.0026 63.3772 88.05 63.6579L145.876 79.1522C146.378 79.2869 146.809 79.6101 147.072 80.0507C147.335 80.4913 147.409 81.0131 147.278 81.5015C147.147 81.9898 146.822 82.4046 146.374 82.6547C145.926 82.9047 145.392 82.9695 144.889 82.8347L87.0633 67.3405C86.5605 67.2057 86.1302 66.8825 85.8672 66.4419C85.6042 66.0014 85.5299 65.4795 85.6608 64.9912Z" fill="#3E8DE3"/>
<path d="M77.999 70.832C78.2716 69.8147 79.3408 69.2181 80.3883 69.4987L143.901 86.517C144.404 86.6518 144.835 86.975 145.098 87.4155C145.361 87.8561 145.435 88.378 145.304 88.8663C145.173 89.3546 144.848 89.7695 144.4 90.0195C143.952 90.2695 143.418 90.3343 142.915 90.1996L79.4016 73.1813C78.8987 73.0465 78.4685 72.7233 78.2055 72.2828C77.9424 71.8422 77.8682 71.3203 77.999 70.832Z" fill="#3E8DE3"/>
<path d="M70.3356 76.6738C70.4666 76.1854 70.792 75.7707 71.2402 75.5207C71.6884 75.2707 72.2227 75.206 72.7256 75.3407L141.926 93.883C142.416 94.0288 142.832 94.3543 143.084 94.7903C143.336 95.2264 143.405 95.7387 143.276 96.2182C143.148 96.6978 142.832 97.1069 142.396 97.3585C141.959 97.6101 141.437 97.6844 140.94 97.5656L71.7388 79.0233C71.4898 78.9566 71.2559 78.843 71.0506 78.6889C70.8453 78.5347 70.6725 78.3431 70.5422 78.1249C70.4119 77.9067 70.3266 77.6663 70.2911 77.4173C70.2557 77.1683 70.2708 76.9157 70.3356 76.6738Z" fill="#3E8DE3"/>
<path d="M62.6772 82.5132C62.8083 82.0249 63.1335 81.6102 63.5815 81.3602C64.0296 81.1102 64.5637 81.0454 65.0665 81.1799L139.956 101.246C140.446 101.392 140.861 101.718 141.113 102.154C141.365 102.59 141.434 103.102 141.306 103.582C141.177 104.061 140.861 104.47 140.425 104.722C139.989 104.973 139.466 105.048 138.969 104.929L64.0797 84.8624C63.5769 84.7277 63.1467 84.4045 62.8836 83.9639C62.6206 83.5234 62.5464 83.0015 62.6772 82.5132Z" fill="#3E8DE3"/>
<path d="M55.0155 88.355C55.1465 87.8667 55.4718 87.452 55.9198 87.202C56.3678 86.952 56.9019 86.8872 57.4047 87.0217L137.982 108.612C138.472 108.758 138.887 109.083 139.139 109.52C139.391 109.956 139.46 110.468 139.332 110.947C139.203 111.427 138.887 111.836 138.451 112.088C138.014 112.339 137.492 112.414 136.995 112.295L56.418 90.7042C55.9152 90.5695 55.4849 90.2463 55.2219 89.8057C54.9589 89.3652 54.8846 88.8433 55.0155 88.355Z" fill="#3E8DE3"/>
<path d="M47.3537 94.1972C47.4848 93.709 47.81 93.2943 48.2581 93.0443C48.7061 92.7943 49.2402 92.7294 49.743 92.864L136.008 115.979C136.501 116.121 136.921 116.446 137.176 116.883C137.432 117.321 137.502 117.836 137.373 118.318C137.244 118.8 136.925 119.211 136.485 119.462C136.046 119.714 135.52 119.785 135.021 119.662L48.7561 96.5472C48.2532 96.4123 47.823 96.0889 47.5601 95.6483C47.2971 95.2076 47.2229 94.6856 47.3537 94.1972Z" fill="#3E8DE3"/>
<path d="M39.6937 100.039C39.9663 99.0213 41.0363 98.4248 42.083 98.7053L184.276 136.806C184.779 136.941 185.21 137.264 185.473 137.704C185.736 138.145 185.81 138.667 185.679 139.155C185.548 139.644 185.223 140.058 184.775 140.308C184.327 140.558 183.793 140.623 183.29 140.488L41.0962 102.388C40.5935 102.253 40.1634 101.93 39.9004 101.489C39.6374 101.049 39.5631 100.527 39.6937 100.039Z" fill="#3E8DE3"/>
<path d="M32.032 105.88C32.3045 104.863 33.3745 104.266 34.4212 104.547L183.25 144.425C183.753 144.56 184.183 144.883 184.446 145.324C184.709 145.764 184.784 146.286 184.653 146.775C184.522 147.263 184.197 147.678 183.749 147.928C183.301 148.178 182.766 148.243 182.264 148.108L33.4345 108.229C32.9318 108.094 32.5017 107.771 32.2387 107.33C31.9757 106.89 31.9013 106.368 32.032 105.88Z" fill="#3E8DE3"/>
<path d="M28.163 112.735C28.4356 111.718 29.5056 111.122 30.5523 111.402L176.538 150.519C177.04 150.653 177.471 150.977 177.734 151.417C177.997 151.858 178.071 152.38 177.94 152.868C177.809 153.356 177.484 153.771 177.036 154.021C176.588 154.271 176.054 154.336 175.551 154.201L29.5656 115.085C29.0628 114.95 28.6327 114.626 28.3697 114.186C28.1067 113.745 28.0324 113.224 28.163 112.735Z" fill="#3E8DE3" fill-opacity="0.1"/>
<path d="M34.7206 122.388C34.9931 121.37 36.0631 120.774 37.1098 121.054L174.564 157.885C175.066 158.02 175.497 158.343 175.76 158.784C176.023 159.224 176.097 159.746 175.966 160.234C175.835 160.723 175.51 161.137 175.062 161.387C174.614 161.638 174.08 161.702 173.577 161.568L36.1231 124.737C35.6204 124.602 35.1903 124.279 34.9273 123.838C34.6643 123.398 34.5899 122.876 34.7206 122.388Z" fill="#3E8DE3" fill-opacity="0.1"/>
<path d="M165.461 165.313C165.188 166.33 164.119 166.927 163.071 166.646L76.8076 143.532C76.5586 143.465 76.3248 143.351 76.1196 143.197C75.9144 143.043 75.7417 142.852 75.6115 142.633C75.4813 142.415 75.396 142.175 75.3606 141.926C75.3252 141.677 75.3403 141.424 75.4051 141.183C75.4699 140.941 75.5831 140.714 75.7382 140.517C75.8933 140.319 76.0874 140.153 76.3092 140.029C76.5311 139.906 76.7764 139.826 77.0312 139.795C77.2861 139.764 77.5454 139.783 77.7943 139.849L164.058 162.964C165.106 163.244 165.733 164.296 165.461 165.313Z" fill="#3E8DE3" fill-opacity="0.1"/>
<path d="M157.798 171.155C157.525 172.172 156.456 172.769 155.409 172.488L74.8326 150.898C74.3297 150.763 73.8995 150.44 73.6365 149.999C73.3734 149.558 73.2992 149.037 73.43 148.548C73.5609 148.06 73.8861 147.645 74.3342 147.395C74.7823 147.145 75.3165 147.08 75.8193 147.215L156.396 168.805C157.443 169.086 158.07 170.138 157.798 171.155Z" fill="#3E8DE3" fill-opacity="0.1"/>
<path d="M150.139 176.996C149.866 178.013 148.797 178.61 147.749 178.329L72.8609 158.263C72.3581 158.128 71.9278 157.805 71.6648 157.364C71.4018 156.924 71.3275 156.402 71.4584 155.914C71.5892 155.425 71.9145 155.01 72.3625 154.76C72.8106 154.51 73.3448 154.446 73.8476 154.58L148.736 174.647C149.784 174.927 150.411 175.979 150.139 176.996Z" fill="#3E8DE3" fill-opacity="0.1"/>
<path d="M142.478 182.837C142.205 183.854 141.135 184.45 140.088 184.17L70.8875 165.628C70.3847 165.493 69.9545 165.17 69.6914 164.729C69.4284 164.289 69.3542 163.767 69.485 163.278C69.6159 162.79 69.9411 162.375 70.3892 162.125C70.8372 161.875 71.3715 161.81 71.8743 161.945L141.075 180.487C141.578 180.622 142.008 180.945 142.271 181.386C142.534 181.827 142.608 182.348 142.478 182.837Z" fill="#3E8DE3" fill-opacity="0.1"/>
<path d="M134.817 188.678C134.686 189.166 134.361 189.581 133.913 189.831C133.464 190.081 132.93 190.146 132.428 190.011L68.9144 172.993C68.4115 172.858 67.9811 172.535 67.7181 172.094C67.455 171.654 67.3807 171.132 67.5116 170.643C67.6425 170.155 67.9678 169.74 68.4159 169.49C68.8641 169.24 69.3984 169.175 69.9013 169.31L133.414 186.328C133.917 186.463 134.348 186.786 134.611 187.227C134.873 187.668 134.948 188.19 134.817 188.678Z" fill="#3E8DE3" fill-opacity="0.1"/>
<path d="M127.156 194.52C127.025 195.008 126.699 195.422 126.251 195.672C125.803 195.922 125.269 195.987 124.766 195.853L66.9409 180.359C66.438 180.224 66.0078 179.901 65.7448 179.46C65.4817 179.019 65.4075 178.498 65.5383 178.009C65.6692 177.521 65.9944 177.106 66.4425 176.856C66.8906 176.606 67.4248 176.541 67.9276 176.676L125.753 192.17C126.256 192.305 126.686 192.628 126.949 193.069C127.212 193.509 127.286 194.031 127.156 194.52Z" fill="#3E8DE3" fill-opacity="0.1"/>
<path d="M119.493 200.36C119.362 200.849 119.037 201.263 118.589 201.513C118.141 201.763 117.606 201.828 117.104 201.694L64.9658 187.723C64.463 187.589 64.0327 187.265 63.7697 186.825C63.5067 186.384 63.4324 185.862 63.5633 185.374C63.6941 184.886 64.0194 184.471 64.4674 184.221C64.9155 183.971 65.4497 183.906 65.9525 184.041L118.09 198.011C118.593 198.146 119.023 198.469 119.286 198.91C119.549 199.35 119.624 199.872 119.493 200.36Z" fill="#3E8DE3" fill-opacity="0.1"/>
<path d="M110.886 205.948C110.755 206.436 110.429 206.851 109.981 207.101C109.533 207.351 108.999 207.416 108.496 207.281L62.9941 195.089C62.4913 194.954 62.0611 194.631 61.7981 194.19C61.535 193.75 61.4608 193.228 61.5916 192.74C61.7225 192.251 62.0477 191.837 62.4958 191.587C62.9439 191.336 63.4781 191.272 63.9809 191.406L109.483 203.599C109.986 203.733 110.416 204.057 110.679 204.497C110.942 204.938 111.016 205.46 110.886 205.948Z" fill="#3E8DE3" fill-opacity="0.1"/>
<path d="M103.223 211.788C102.95 212.806 101.88 213.402 100.833 213.121L61.0191 202.453C60.5163 202.319 60.086 201.995 59.823 201.555C59.56 201.114 59.4857 200.592 59.6166 200.104C59.7474 199.616 60.0727 199.201 60.5207 198.951C60.9688 198.701 61.503 198.636 62.0058 198.771L101.82 209.439C102.867 209.719 103.495 210.772 103.223 211.788Z" fill="#3E8DE3" fill-opacity="0.1"/>
<path d="M95.5611 217.629C95.2885 218.647 94.2193 219.243 93.1718 218.963L59.0458 209.818C58.5429 209.684 58.1127 209.361 57.8497 208.92C57.5866 208.479 57.5124 207.958 57.6432 207.469C57.7741 206.981 58.0993 206.566 58.5474 206.316C58.9955 206.066 59.5297 206.001 60.0325 206.136L94.1586 215.28C95.206 215.561 95.8335 216.613 95.5611 217.629Z" fill="#3E8DE3" fill-opacity="0.1"/>
<path d="M87.9 223.471C87.6275 224.488 86.5582 225.085 85.5108 224.804L57.0724 217.184C56.5696 217.049 56.1393 216.726 55.8763 216.286C55.6133 215.845 55.539 215.323 55.6699 214.835C55.8007 214.347 56.1259 213.932 56.574 213.682C57.0221 213.432 57.5563 213.367 58.0591 213.502L86.4975 221.122C87.545 221.402 88.1724 222.454 87.9 223.471Z" fill="#3E8DE3" fill-opacity="0.1"/>
<path d="M80.239 229.311C79.9665 230.329 78.8972 230.925 77.8498 230.644L55.0991 224.548C54.5962 224.414 54.166 224.091 53.903 223.65C53.6399 223.209 53.5657 222.688 53.6965 222.199C53.8274 221.711 54.1526 221.296 54.6007 221.046C55.0488 220.796 55.583 220.731 56.0858 220.866L78.8365 226.962C79.884 227.243 80.5114 228.295 80.239 229.311Z" fill="#3E8DE3" fill-opacity="0.1"/>
<path d="M69.7332 234.391C69.4607 235.409 68.3912 236.006 67.3438 235.725L60.7082 233.947C60.2052 233.812 59.7749 233.489 59.5118 233.049C59.2488 232.608 59.1745 232.086 59.3054 231.598C59.4362 231.109 59.7615 230.694 60.2097 230.444C60.6579 230.194 61.1922 230.129 61.6951 230.264L68.3307 232.042C69.3782 232.323 70.0056 233.375 69.7332 234.391Z" fill="#3E8DE3" fill-opacity="0.1"/>
</svg>
